<svg width="48" height="48" viewBox="0 0 48 48" fill="none" xmlns="http://www.w3.org/2000/svg">
<path d="M23.9963 2.19897C11.9558 2.19897 2.19531 11.9595 2.19531 24C2.19531 36.0405 11.9558 45.801 23.9963 45.801C36.0368 45.801 45.7973 36.0405 45.7973 24C45.7973 11.9595 36.0368 2.19897 23.9963 2.19897ZM25.8788 35.82V38.8905H22.9418V35.8545C18.1223 35.1945 16.0118 31.2345 16.0118 31.2345L19.0118 28.725C19.0118 28.725 20.9273 32.0595 24.3923 32.0595C26.3063 32.0595 27.7583 31.035 27.7583 29.2845C27.7583 25.1925 16.7333 25.689 16.7333 18.0975C16.7333 14.7975 19.3433 12.42 22.9403 11.8575V8.78997H25.8773V11.8575C28.3853 12.1875 31.3553 13.5075 31.3553 16.347V18.525H27.4613V17.469C27.4613 16.38 26.0738 15.654 24.5213 15.654C22.5413 15.654 21.0908 16.644 21.0908 18.03C21.0908 22.221 32.1158 21.198 32.1158 29.1525C32.1158 32.4225 29.6738 35.2575 25.8788 35.82Z" fill="#00BC62"/>
<path d="M25.8788 35.82V38.8905H22.9418V35.8545C18.1223 35.1945 16.0118 31.2345 16.0118 31.2345L19.0118 28.725C19.0118 28.725 20.9273 32.0595 24.3923 32.0595C26.3063 32.0595 27.7583 31.035 27.7583 29.2845C27.7583 25.1925 16.7333 25.689 16.7333 18.0975C16.7333 14.7975 19.3433 12.42 22.9403 11.8575V8.78997H25.8773V11.8575C28.3853 12.1875 31.3553 13.5075 31.3553 16.347V18.525H27.4613V17.469C27.4613 16.38 26.0738 15.654 24.5213 15.654C22.5413 15.654 21.0908 16.644 21.0908 18.03C21.0908 22.221 32.1158 21.198 32.1158 29.1525C32.1158 32.4225 29.6738 35.2575 25.8788 35.82Z" fill="white"/>
</svg>
